<svg width="386" height="87" viewBox="0 0 386 87" fill="none" xmlns="http://www.w3.org/2000/svg">
<path id="Vector" d="M167.473 0L84.1029 87.0843H89.738L173.221 0H167.473ZM115.518 0L32.1761 87.0843H37.8111L121.153 0H115.518ZM140.876 0L58.1536 87.0843H63.7886L146.511 0H140.876ZM9.94584 0L0 10.3658V16.2932L15.5809 0H9.94584ZM88.8363 0L5.63504 87.0843H11.2701L94.725 0H88.8363ZM196.775 0L113.264 87.0843H118.899L202.411 0H196.775ZM35.6134 0L0 37.1653V43.1769L41.3612 0H35.6134ZM61.591 0L0 64.2457V70.2293L67.3387 0H61.591ZM354.275 0L270.961 87.0843H276.596L360.051 0H354.275ZM380.365 0L297.53 87.0843H303.165L386 0H380.365ZM328.297 0L244.955 87.0843H250.59L334.101 0H328.297ZM222.584 0L139.242 87.0843H144.877L228.388 0H222.584ZM248.533 0L165.247 87.0843H170.882L254.366 0H248.533ZM274.595 0L191.817 87.0843H197.452L280.146 0H274.595ZM301.756 0L218.978 87.0843H224.613L307.504 0H301.756Z" fill="#37B5E7"/>
</svg>
