<svg width="420" height="65" viewBox="0 0 420 65" fill="none" xmlns="http://www.w3.org/2000/svg">
<path id="Union" fill-rule="evenodd" clip-rule="evenodd" d="M67.4124 0L0 65H4.61243L72.0249 0H67.4124ZM21.1107 65L89.0554 0H93.5791L25.8119 65H21.1107ZM86.1105 65L153.346 0H157.887L90.6165 65H86.1105ZM107.079 65L174.9 0H179.53L111.763 65H107.079ZM196.152 0L128.208 65H132.909L200.712 0H196.152ZM42.2215 65L109.989 0H114.725L46.9403 65H42.2215ZM217.103 0L149.354 65H153.931L221.858 0H217.103ZM63.8644 65L131.277 0H135.907L68.4946 65H63.8644ZM245.576 0H244.041H241.017H239.441L172.458 65H173.09H177.058H177.756L245.576 0ZM199.346 65H199.039H194.857H194.562L261.369 0H262.075H265.881H266.669L199.346 65ZM223.542 57.1441L215.347 65H215.397H219.977H220.051L229.89 55.5017L287.816 0H287.386H283.15H282.786L223.542 57.1441ZM236.391 65L303.903 0H308.433L241.062 65H236.391ZM257.403 65L324.721 0H329.445L261.951 65H257.403ZM421 37.25L392.285 65H387.508L421 32.7667V37.25ZM421 57.2833L413.015 65H408.397L421 52.8667V57.2833ZM371.292 65H366.638L421 12.4833V17.0167L371.292 65ZM280.988 65L348.482 0H353.012L285.624 65H280.988ZM344.428 65L411.94 0H416.47L349.099 65H344.428ZM302.616 65L369.405 0H373.971L307.076 65H302.616ZM322.976 65L390.346 0H394.982L327.576 65H322.976Z" fill="#EEF1F7"/>
</svg>
