<svg width="80" height="80" viewBox="0 0 80 80" fill="none" xmlns="http://www.w3.org/2000/svg">
<g id="Frame 6">
<g id="Group 5">
<path id="Vector" d="M23.8575 46C23.3625 46.0011 22.876 46.1319 22.4452 46.3798C22.0143 46.6276 21.6536 46.9842 21.3978 47.415L19.922 49.9237L19.8384 49.7637V46.6775L23.036 45.375C23.6978 45.1066 24.2305 44.5863 24.5206 43.9248C24.8108 43.2633 24.8355 42.5129 24.5895 41.8332C24.3435 41.1534 23.8462 40.5981 23.2035 40.2854C22.5608 39.9727 21.8234 39.9272 21.1482 40.1587L20.7989 40.2775L21.1974 39.47C21.596 38.6573 21.8044 37.7619 21.8061 36.8537C21.8055 36.211 21.5916 35.5873 21.1989 35.0836C20.8063 34.5798 20.2579 34.2254 19.6424 34.0778C19.027 33.9302 18.3806 33.9979 17.8077 34.2701C17.2349 34.5422 16.7691 35.0029 16.4859 35.5775L14.0397 40.5525L11.9871 50.8025L11.9674 64L12.7398 68H9.99969V75H24.7578V68H21.8061V61.3025L23.6091 58.5525L26.2889 51.365C26.578 50.5816 26.7259 49.7517 26.7255 48.915C26.7249 48.1421 26.4225 47.401 25.8848 46.8545C25.3471 46.308 24.618 46.0007 23.8575 46ZM21.7779 42.055C21.9678 41.9878 22.1762 41.9992 22.358 42.0866C22.5399 42.174 22.6807 42.3304 22.7501 42.5223C22.8196 42.7141 22.8122 42.9261 22.7295 43.1124C22.6468 43.2988 22.4954 43.4447 22.3079 43.5187L19.8384 44.5187V42.7175L21.7779 42.055ZM22.79 73H11.9674V70H22.79V73ZM24.4454 50.6637L21.9095 57.5387L19.8384 60.6975V68H14.742L13.9352 63.9012V51.0987L15.8574 41.3275L18.247 36.4737C18.3159 36.3311 18.423 36.2111 18.5558 36.1273C18.6887 36.0435 18.8421 35.9994 18.9984 36C19.221 36.0007 19.4343 36.0908 19.5917 36.2508C19.7491 36.4107 19.8378 36.6275 19.8384 36.8537C19.8372 37.452 19.7 38.042 19.4375 38.5775L17.8707 41.7637V50.2375L19.7597 54.0775L23.0803 48.4437C23.1815 48.2719 23.3354 48.1386 23.5183 48.0643C23.7013 47.9899 23.9032 47.9786 24.0931 48.0321C24.283 48.0856 24.4503 48.2009 24.5695 48.3604C24.6887 48.5199 24.7531 48.7147 24.7528 48.915C24.7552 49.512 24.651 50.1045 24.4454 50.6637Z" fill="#184188"/>
<path id="Vector_2" d="M68.2647 68L69.0137 64.1962L69.0321 51L67.0447 40.8037L64.5137 35.5775C64.2304 35.0029 63.7647 34.5422 63.1919 34.2701C62.619 33.9979 61.9726 33.9302 61.3572 34.0778C60.7417 34.2254 60.1933 34.5798 59.8006 35.0836C59.408 35.5873 59.194 36.211 59.1934 36.8537C59.1949 37.7626 59.4028 38.6587 59.801 39.4725L60.1982 40.2775L59.8502 40.1587C59.1781 39.94 58.4488 39.9935 57.8147 40.3083C57.1806 40.623 56.6906 41.1746 56.4471 41.8478C56.2037 42.5211 56.2255 43.2639 56.5081 43.9211C56.7906 44.5784 57.3121 45.0993 57.9636 45.375L61.1612 46.6762V49.7625L61.0825 49.9225L59.6067 47.415C59.284 46.8681 58.7939 46.4439 58.2113 46.2072C57.6288 45.9706 56.9859 45.9346 56.3814 46.1049C55.7768 46.2751 55.2438 46.6421 54.864 47.1497C54.4843 47.6572 54.2788 48.2774 54.279 48.915C54.2783 49.7525 54.4262 50.5833 54.7156 51.3675L57.2921 58.3512L59.1934 61.3025V68H56.2418V75H70.9999V68H68.2647ZM58.6904 43.5187C58.5482 43.4609 58.4263 43.361 58.3406 43.232C58.2548 43.1029 58.2092 42.9507 58.2096 42.795C58.2094 42.6712 58.2383 42.5491 58.2939 42.4388C58.3494 42.3286 58.4299 42.2334 58.5288 42.1611C58.6278 42.0888 58.7422 42.0414 58.8627 42.023C58.9832 42.0045 59.1062 42.0155 59.2217 42.055L61.1612 42.7175V44.5225L58.6904 43.5187ZM59.0914 57.5412L56.5542 50.6662C56.3467 50.1069 56.2409 49.514 56.2418 48.9162C56.2416 48.716 56.306 48.5212 56.4252 48.3617C56.5443 48.2022 56.7117 48.0868 56.9016 48.0333C57.0915 47.9799 57.2934 47.9911 57.4763 48.0655C57.6593 48.1399 57.8132 48.2732 57.9144 48.445L61.235 54.0775L63.1289 50.2362V41.7625L61.5621 38.5775C61.2993 38.0421 61.1621 37.4521 61.1612 36.8537C61.1612 36.6614 61.2252 36.4748 61.3427 36.324C61.4601 36.1732 61.6243 36.0672 61.8084 36.0231C61.9926 35.9789 62.1861 35.9993 62.3574 36.0809C62.5288 36.1625 62.668 36.3004 62.7526 36.4725L65.1422 41.3275L67.0644 51.0987V63.9025L66.2576 68H61.1612V60.6975L59.0914 57.5412ZM69.0321 73H58.2096V70H69.0321V73Z" fill="#184188"/>
<path id="Vector_3" d="M52.9368 32H55.26V26H52.9368C52.6261 24.6507 52.1015 23.3618 51.3835 22.1837L53.0241 20.515L48.8513 16.2725L47.2082 17.94C46.0491 17.2104 44.781 16.6772 43.4535 16.3612V14H37.5503V16.3612C36.2227 16.677 34.9546 17.2102 33.7956 17.94L32.1538 16.2725L27.9797 20.5137L29.6215 22.1825C28.9036 23.361 28.379 24.6503 28.0682 26H25.7438V32H28.067C28.3777 33.3493 28.9023 34.6382 29.6203 35.8162L27.9797 37.485L32.1525 41.7275L33.6603 40.195C33.6439 40.2955 33.6336 40.3969 33.6296 40.4987C33.6308 40.9207 33.7372 41.3355 33.9387 41.7044C34.1402 42.0734 34.4303 42.3845 34.7819 42.6087C34.636 42.9866 34.5834 43.3951 34.6288 43.7984C34.6741 44.2018 34.8161 44.5876 35.0422 44.9223C35.2683 45.2569 35.5716 45.5302 35.9257 45.718C36.2797 45.9059 36.6737 46.0027 37.0731 46H43.9602C44.3595 46.0026 44.7533 45.9058 45.1072 45.718C45.4611 45.5302 45.7644 45.2571 45.9904 44.9226C46.2165 44.5882 46.3585 44.2025 46.404 43.7993C46.4495 43.3962 46.3971 42.9878 46.2514 42.61C46.6031 42.3857 46.8932 42.0746 47.0947 41.7057C47.2962 41.3367 47.4025 40.922 47.4038 40.5C47.3997 40.41 47.3907 40.3202 47.3767 40.2312L48.8525 41.7312L53.0266 37.4887L51.3847 35.82C52.1031 34.6409 52.6273 33.3506 52.9368 32ZM36.088 41C35.9575 41 35.8324 40.9473 35.7402 40.8535C35.6479 40.7598 35.5961 40.6326 35.5961 40.5C35.5961 40.3674 35.6479 40.2402 35.7402 40.1464C35.8324 40.0527 35.9575 40 36.088 40H44.9428C45.0733 40 45.1984 40.0527 45.2907 40.1464C45.383 40.2402 45.4348 40.3674 45.4348 40.5C45.4348 40.6326 45.383 40.7598 45.2907 40.8535C45.1984 40.9473 45.0733 41 44.9428 41H36.088ZM43.959 35.0562L43.467 35.345V38H41.4993V31.8162C42.1558 31.5803 42.709 31.1162 43.0613 30.5058C43.4136 29.8954 43.5423 29.178 43.4245 28.4805C43.3068 27.783 42.9502 27.1503 42.4179 26.6941C41.8856 26.238 41.2117 25.9878 40.5154 25.9878C39.8192 25.9878 39.1453 26.238 38.613 26.6941C38.0806 27.1503 37.7241 27.783 37.6063 28.4805C37.4886 29.178 37.6172 29.8954 37.9695 30.5058C38.3218 31.1162 38.8751 31.5803 39.5316 31.8162V38H37.5638V35.345L37.0719 35.0562C35.7589 34.2858 34.7328 33.0965 34.1526 31.6728C33.5724 30.2492 33.4706 28.6708 33.863 27.1823C34.2554 25.6939 35.12 24.3787 36.3228 23.4406C37.5256 22.5025 38.9993 21.9941 40.5154 21.9941C42.0315 21.9941 43.5052 22.5025 44.708 23.4406C45.9108 24.3787 46.7755 25.6939 47.1679 27.1823C47.5602 28.6708 47.4585 30.2492 46.8783 31.6728C46.2981 33.0965 45.2719 34.2858 43.959 35.0562ZM39.5316 29C39.5316 28.8022 39.5893 28.6089 39.6974 28.4444C39.8055 28.28 39.9591 28.1518 40.1389 28.0761C40.3187 28.0004 40.5165 27.9806 40.7074 28.0192C40.8982 28.0578 41.0735 28.153 41.2111 28.2929C41.3487 28.4327 41.4424 28.6109 41.4804 28.8049C41.5184 28.9989 41.4989 29.2 41.4244 29.3827C41.3499 29.5654 41.2238 29.7216 41.062 29.8315C40.9002 29.9413 40.71 30 40.5154 30C40.2549 29.9993 40.0053 29.8937 39.8213 29.7062C39.6373 29.5188 39.534 29.2648 39.534 29H39.5316ZM43.959 44H37.0719C36.9414 44 36.8163 43.9473 36.724 43.8535C36.6318 43.7598 36.5799 43.6326 36.5799 43.5C36.5799 43.3674 36.6318 43.2402 36.724 43.1464C36.8163 43.0527 36.9414 43 37.0719 43H43.959C44.0894 43 44.2146 43.0527 44.3068 43.1464C44.3991 43.2402 44.4509 43.3674 44.4509 43.5C44.4509 43.6326 44.3991 43.7598 44.3068 43.8535C44.2146 43.9473 44.0894 44 43.959 44ZM51.1585 30.8337C50.8926 32.4677 50.2615 34.0178 49.3137 35.365L48.8316 36.0525L50.2385 37.485L48.8476 38.8987L47.4382 37.4675L46.7606 37.9575C46.581 38.0825 46.3842 38.2175 46.1727 38.3475C45.9447 38.2071 45.6953 38.1061 45.4348 38.0487V36.4737C47.0143 35.4011 48.2126 33.8405 48.8526 32.0226C49.4926 30.2046 49.5404 28.2256 48.989 26.3779C48.4376 24.5303 47.3161 22.9118 45.7903 21.7616C44.2644 20.6114 42.4151 19.9904 40.5154 19.9904C38.6157 19.9904 36.7664 20.6114 35.2406 21.7616C33.7147 22.9118 32.5933 24.5303 32.0419 26.3779C31.4904 28.2256 31.5382 30.2046 32.1782 32.0226C32.8183 33.8405 34.0165 35.4011 35.5961 36.4737V38.05C35.3287 38.1086 35.073 38.2125 34.8397 38.3575C34.6257 38.225 34.4228 38.0937 34.2383 37.9587L33.5607 37.4687L32.1513 38.9L30.7603 37.4862L32.1673 36.0537L31.6852 35.3662C30.7374 34.0191 30.1063 32.4689 29.8404 30.835L29.7039 30H27.7116V28H29.7039L29.8429 27.1662C30.1088 25.5323 30.7399 23.9821 31.6876 22.635L32.1697 21.9475L30.7616 20.515L32.1525 19.1012L33.5619 20.5312L34.2383 20.0412C35.5637 19.0779 37.0889 18.4365 38.6965 18.1662L39.518 18.025V16H41.4858V18.025L42.3061 18.1662C43.9137 18.4365 45.4388 19.0779 46.7642 20.0412L47.4407 20.5312L48.85 19.1L50.241 20.5137L48.8341 21.9462L49.3162 22.6337C50.2639 23.9809 50.895 25.5311 51.1609 27.165L51.2999 28H53.2922V30H51.2999L51.1585 30.8337Z" fill="#184188"/>
<path id="Vector_4" d="M41.4831 48H39.5153V50H41.4831V48Z" fill="#184188"/>
<path id="Vector_5" d="M41.4831 52H39.5153V54H41.4831V52Z" fill="#184188"/>
<path id="Vector_6" d="M41.4831 56H39.5153V58H41.4831V56Z" fill="#184188"/>
<path id="Vector_7" d="M41.4831 60H39.5153V62H41.4831V60Z" fill="#184188"/>
</g>
</g>
</svg>
