<svg width="80" height="80" viewBox="0 0 80 80" fill="none" xmlns="http://www.w3.org/2000/svg">
<g id="&#208;&#160;&#208;&#181;&#209;&#129;&#209;&#131;&#209;&#128;&#209;&#129; 1 2">
<g id="Group 3">
<path id="Vector" d="M36.6005 15.9346C32.5172 15.9346 28.5256 17.1458 25.1305 19.4151C21.7354 21.6844 19.0892 24.9098 17.5266 28.6835C15.964 32.4573 15.5552 36.6097 16.3518 40.6159C17.1484 44.622 19.1147 48.3019 22.002 51.1902C24.8893 54.0784 28.5679 56.0454 32.5728 56.8423C36.5776 57.6391 40.7287 57.2301 44.5011 55.667C48.2736 54.1039 51.4979 51.4568 53.7665 48.0606C56.035 44.6644 57.2458 40.6715 57.2458 36.5868C57.2458 31.1095 55.0707 25.8565 51.199 21.9835C47.3272 18.1104 42.076 15.9346 36.6005 15.9346ZM36.6005 17.9015C39.593 17.9035 42.5411 18.6256 45.1961 20.0069C47.851 21.3882 50.1348 23.3881 51.8547 25.8378L49.3969 28.2964C48.799 27.9336 48.114 27.7399 47.4147 27.7359C46.3718 27.7359 45.3715 28.1503 44.634 28.888C43.8966 29.6258 43.4823 30.6263 43.4823 31.6696C43.4861 32.3696 43.6789 33.0555 44.0402 33.6549L37.602 40.094C37.0043 39.7291 36.3176 39.536 35.6173 39.536C34.9171 39.536 34.2304 39.7291 33.6327 40.094L29.162 35.6218C29.5229 35.0223 29.7152 34.3363 29.7187 33.6365C29.7208 32.6798 29.3736 31.7552 28.7423 31.0366C28.1109 30.3179 27.239 29.8547 26.2902 29.7339C25.3415 29.6131 24.3813 29.8431 23.5901 30.3807C22.799 30.9182 22.2313 31.7263 21.9939 32.6531H18.3465C19.2496 28.4796 21.5526 24.7408 24.8731 22.0574C28.1936 19.374 32.3318 17.9075 36.6005 17.9015ZM45.4485 31.6696C45.4485 31.2806 45.5638 30.9003 45.7799 30.5769C45.9959 30.2534 46.303 30.0013 46.6623 29.8525C47.0215 29.7036 47.4169 29.6646 47.7983 29.7405C48.1797 29.8164 48.5301 30.0038 48.805 30.2788C49.08 30.5539 49.2673 30.9044 49.3432 31.2859C49.419 31.6674 49.3801 32.0629 49.2313 32.4223C49.0824 32.7817 48.8304 33.0889 48.5071 33.305C48.1837 33.5211 47.8036 33.6365 47.4147 33.6365C46.8932 33.6365 46.3931 33.4293 46.0244 33.0604C45.6556 32.6916 45.4485 32.1913 45.4485 31.6696ZM35.6173 41.504C36.0062 41.504 36.3864 41.6194 36.7097 41.8355C37.0331 42.0516 37.2851 42.3588 37.4339 42.7182C37.5827 43.0776 37.6217 43.4731 37.5458 43.8546C37.4699 44.2362 37.2827 44.5866 37.0077 44.8617C36.7327 45.1368 36.3824 45.3241 36.0009 45.4C35.6195 45.4759 35.2242 45.4369 34.8649 45.2881C34.5056 45.1392 34.1985 44.8871 33.9825 44.5637C33.7664 44.2402 33.6511 43.8599 33.6511 43.4709C33.6511 42.9493 33.8583 42.449 34.227 42.0801C34.5958 41.7113 35.0959 41.504 35.6173 41.504ZM25.7862 35.6034C25.3973 35.6034 25.0172 35.488 24.6938 35.2719C24.3705 35.0558 24.1185 34.7486 23.9697 34.3892C23.8208 34.0298 23.7819 33.6343 23.8578 33.2528C23.9336 32.8712 24.1209 32.5208 24.3959 32.2457C24.6709 31.9706 25.0212 31.7833 25.4026 31.7074C25.784 31.6315 26.1794 31.6705 26.5387 31.8193C26.8979 31.9682 27.205 32.2203 27.4211 32.5438C27.6371 32.8672 27.7524 33.2475 27.7524 33.6365C27.7524 34.1582 27.5453 34.6584 27.1766 35.0273C26.8078 35.3962 26.3077 35.6034 25.7862 35.6034ZM36.6005 55.2722C33.9806 55.2753 31.3894 54.7266 28.9955 53.6617C26.6016 52.5968 24.4587 51.0396 22.7062 49.0915C20.9537 47.1434 19.6309 44.8479 18.8239 42.3546C18.0168 39.8613 17.7436 37.2259 18.0221 34.6199H21.9939C22.2112 35.4618 22.7012 36.208 23.3873 36.7418C24.0734 37.2756 24.917 37.5669 25.7862 37.5703C26.486 37.5667 27.1717 37.3738 27.7709 37.0122L32.2428 41.4844C31.8814 42.0842 31.6886 42.7705 31.6849 43.4709C31.6849 44.5142 32.0992 45.5148 32.8367 46.2525C33.5742 46.9902 34.5744 47.4047 35.6173 47.4047C36.6603 47.4047 37.6605 46.9902 38.398 46.2525C39.1355 45.5148 39.5498 44.5142 39.5498 43.4709C39.5465 42.7707 39.3542 42.0843 38.9931 41.4844L45.4264 35.049C46.0271 35.4097 46.7141 35.6013 47.4147 35.6034C48.4577 35.6034 49.4579 35.1889 50.1954 34.4512C50.9328 33.7135 51.3472 32.7129 51.3472 31.6696C51.3439 30.9694 51.1515 30.283 50.7905 29.6831L52.9337 27.5404C54.5117 30.3836 55.32 33.5898 55.2784 36.8416C55.2368 40.0933 54.3469 43.2778 52.6966 46.0797C51.0464 48.8816 48.6932 51.2037 45.8699 52.816C43.0467 54.4284 39.8514 55.275 36.6005 55.2722Z" fill="#184188"/>
<path id="Vector_2" d="M61.178 13.9678C60.135 13.9678 59.1348 14.3822 58.3973 15.12C57.6598 15.8577 57.2455 16.8583 57.2455 17.9016C57.2494 18.6015 57.4422 19.2874 57.8035 19.8869L56.0756 21.6079C47.8113 10.8466 32.3814 8.81703 21.6138 17.0853C10.8463 25.3536 8.81739 40.7875 17.0829 51.5586C20.8451 56.4615 26.3152 59.767 32.4041 60.817C38.4929 61.8669 44.7537 60.5843 49.9398 57.2244L52.9063 60.1895L54.2962 61.5799L62.2103 69.4966C62.6874 69.9819 63.2558 70.368 63.8829 70.6325C64.5099 70.897 65.1831 71.0346 65.8636 71.0375C66.544 71.0404 67.2184 70.9084 67.8476 70.6493C68.4768 70.3901 69.0485 70.0088 69.5297 69.5275C70.0109 69.0461 70.392 68.4742 70.6511 67.8448C70.9102 67.2153 71.0421 66.5408 71.0392 65.8601C71.0364 65.1794 70.8988 64.506 70.6344 63.8787C70.37 63.2515 69.984 62.6828 69.4988 62.2056L61.5847 54.2889L60.1949 52.8973L57.2234 49.9335C59.8015 45.961 61.1736 41.3262 61.1736 36.59C61.1736 31.8538 59.8015 27.2191 57.2234 23.2466L59.1896 21.2797C59.7903 21.6406 60.4773 21.8325 61.178 21.8353C62.0474 21.8322 62.8913 21.541 63.5777 21.0072C64.264 20.4734 64.7542 19.7271 64.9716 18.885H71.0091V16.9181H64.9716C64.7542 16.076 64.264 15.3297 63.5777 14.7959C62.8913 14.2621 62.0474 13.9709 61.178 13.9678ZM68.1089 63.5959C68.7135 64.1872 69.0585 64.9945 69.0681 65.8402C69.0777 66.6859 68.751 67.5008 68.1599 68.1056C67.5689 68.7104 66.7619 69.0555 65.9164 69.0651C65.071 69.0747 64.2563 68.7479 63.6517 68.1566L63.6001 68.1062L55.6861 60.1895L60.1949 55.6792L68.1089 63.5959ZM56.0842 51.566L58.805 54.2889L54.2962 58.7979L51.5705 56.08C51.7094 55.9742 51.8384 55.8562 51.9748 55.7481C52.1112 55.6399 52.2698 55.5022 52.4172 55.3793C52.6323 55.1986 52.8449 55.0105 53.0526 54.8285C53.1595 54.7302 53.2627 54.6318 53.3672 54.5335C53.7702 54.1549 54.1606 53.7644 54.5383 53.362C54.6366 53.2563 54.7349 53.1542 54.8332 53.0473C55.0212 52.8383 55.2019 52.6256 55.385 52.4105C55.5079 52.2654 55.6287 52.1183 55.7475 51.9692C55.8606 51.8389 55.9773 51.7073 56.0842 51.5697V51.566ZM54.993 49.722C54.6833 50.1547 54.3638 50.5825 54.0258 50.9857C53.9275 51.1087 53.8231 51.2205 53.7211 51.3373C53.4204 51.6881 53.1099 52.0278 52.7896 52.3564C52.6495 52.5002 52.5082 52.6428 52.3632 52.7817C52.0363 53.1026 51.6959 53.4136 51.3456 53.7148C51.2227 53.8131 51.1134 53.9201 50.9942 54.0197C50.5862 54.3565 50.1622 54.6761 49.7296 54.9859C39.5532 62.2584 25.4086 59.9031 18.1373 49.722C10.8659 39.5409 13.2291 25.4003 23.4006 18.1216C33.5722 10.8429 47.7216 13.2044 54.993 23.3855C57.7371 27.2281 59.2123 31.8325 59.2123 36.555C59.2123 41.2774 57.7371 45.8818 54.993 49.7245V49.722ZM61.178 19.8684C60.7891 19.8684 60.409 19.7531 60.0856 19.537C59.7623 19.3208 59.5103 19.0137 59.3614 18.6543C59.2126 18.2949 59.1737 17.8994 59.2495 17.5178C59.3254 17.1363 59.5127 16.7858 59.7877 16.5108C60.0626 16.2357 60.413 16.0484 60.7944 15.9725C61.1758 15.8966 61.5712 15.9355 61.9304 16.0844C62.2897 16.2333 62.5968 16.4854 62.8128 16.8088C63.0289 17.1323 63.1442 17.5125 63.1442 17.9016C63.1442 18.4232 62.9371 18.9235 62.5683 19.2924C62.1996 19.6612 61.6995 19.8684 61.178 19.8684Z" fill="#184188"/>
</g>
</g>
</svg>
