<svg width="80" height="80" viewBox="0 0 80 80" fill="none" xmlns="http://www.w3.org/2000/svg">
<g id="Frame 5">
<g id="Group 4">
<path id="Vector" d="M64.9895 33.8031C65.2377 33.8027 65.4757 33.7049 65.6511 33.5311C65.8265 33.3574 65.925 33.1219 65.925 32.8764V23.9315C65.927 23.0528 65.5874 22.207 64.9764 21.5691C64.3654 20.9311 63.5297 20.5499 62.6424 20.5043C51.5378 19.9446 45.5701 15.4541 43 12.8269C42.6783 12.4987 42.2932 12.2378 41.8675 12.0596C41.4419 11.8814 40.9844 11.7896 40.5222 11.7896C40.06 11.7896 39.6025 11.8814 39.1769 12.0596C38.7512 12.2378 38.3661 12.4987 38.0444 12.8269C35.4759 15.4607 29.5067 19.9446 18.402 20.5043C17.515 20.5503 16.6798 20.9317 16.0691 21.5696C15.4584 22.2075 15.119 23.0531 15.1211 23.9315V49.7472C15.1271 53.4112 16.1052 57.0094 17.9577 60.1825C19.8102 63.3556 22.4723 65.9925 25.6781 67.8296L36.2716 73.8774C37.565 74.6129 39.031 75.0001 40.523 75.0001C42.0151 75.0001 43.481 74.6129 44.7744 73.8774L55.368 67.8296C58.5737 65.9925 61.2358 63.3556 63.0884 60.1825C64.9409 57.0094 65.919 53.4112 65.925 49.7472V37.1974C65.9148 36.9586 65.8117 36.7329 65.6372 36.5675C65.4627 36.402 65.2303 36.3097 64.9886 36.3097C64.7469 36.3097 64.5145 36.402 64.3401 36.5675C64.1656 36.7329 64.0625 36.9586 64.0523 37.1974V49.7472C64.0457 53.0859 63.1539 56.3646 61.466 59.2561C59.778 62.1476 57.3529 64.5509 54.4325 66.2263L43.8389 72.2724C42.8306 72.8467 41.6875 73.149 40.5239 73.149C39.3603 73.149 38.2171 72.8467 37.2088 72.2724L26.6152 66.2263C23.6939 64.5519 21.2678 62.1488 19.5795 59.2571C17.8912 56.3654 16.9996 53.0863 16.9938 49.7472V23.9315C16.9914 23.5288 17.1456 23.1406 17.4244 22.8471C17.7032 22.5537 18.0854 22.3773 18.4919 22.3545C30.2391 21.7619 36.6245 16.9372 39.3861 14.1142C39.5332 13.9647 39.709 13.8459 39.9033 13.7647C40.0976 13.6836 40.3063 13.6418 40.5172 13.6418C40.7281 13.6418 40.9368 13.6836 41.1311 13.7647C41.3254 13.8459 41.5013 13.9647 41.6483 14.1142C44.4182 16.9372 50.802 21.7619 62.5475 22.3545C62.954 22.3773 63.3362 22.5537 63.615 22.8471C63.8938 23.1406 64.048 23.5288 64.0456 23.9315V32.8764C64.0456 33.1222 64.1444 33.3579 64.3201 33.5317C64.4959 33.7055 64.7342 33.8031 64.9828 33.8031H64.9895Z" fill="#184188"/>
<path id="Vector_2" d="M21.1024 36.2723C20.9795 36.2723 20.8579 36.2963 20.7444 36.3428C20.6309 36.3892 20.5277 36.4574 20.4409 36.5433C20.354 36.6292 20.2851 36.7312 20.2381 36.8434C20.191 36.9557 20.1668 37.076 20.1668 37.1974V49.7473C20.1716 52.536 20.9162 55.2746 22.3261 57.6897C23.7361 60.1048 25.7621 62.1118 28.2019 63.5103L38.7955 69.5564C39.3208 69.8573 39.9171 70.0158 40.5242 70.0158C41.1313 70.0158 41.7276 69.8573 42.2529 69.5564L52.8465 63.5103C55.2858 62.1115 57.3114 60.1043 58.7211 57.6893C60.1307 55.2742 60.8751 52.5358 60.8799 49.7473V27.3439C60.8801 26.8155 60.6855 26.3051 60.3325 25.9085C59.9795 25.5118 59.4923 25.2561 58.9622 25.1892C50.5643 24.1439 45.0394 20.99 41.8817 18.5258C41.495 18.2232 41.0164 18.0586 40.5234 18.0586C40.0303 18.0586 39.5517 18.2232 39.165 18.5258C36.0023 20.9949 30.4841 24.1422 22.0861 25.1875C21.5557 25.2544 21.0681 25.5103 20.7147 25.9073C20.3614 26.3043 20.1666 26.8151 20.1668 27.3439V32.8764C20.1615 33.0013 20.1818 33.126 20.2265 33.2429C20.2711 33.3598 20.3392 33.4666 20.4267 33.5568C20.5142 33.6471 20.6192 33.7189 20.7354 33.7679C20.8517 33.817 20.9768 33.8422 21.1032 33.8422C21.2296 33.8422 21.3547 33.817 21.4709 33.7679C21.5872 33.7189 21.6922 33.6471 21.7797 33.5568C21.8672 33.4666 21.9353 33.3598 21.9799 33.2429C22.0246 33.126 22.0449 33.0013 22.0395 32.8764V27.3439C22.0389 27.2665 22.0671 27.1916 22.1186 27.1333C22.1701 27.075 22.2415 27.0375 22.3192 27.0279C31.1416 25.9283 36.9827 22.5834 40.3236 19.9809C40.3812 19.9382 40.4513 19.9151 40.5234 19.9151C40.5954 19.9151 40.6655 19.9382 40.7231 19.9809C44.0656 22.59 49.9117 25.9283 58.7342 27.0279C58.8117 27.0376 58.8829 27.0751 58.9341 27.1334C58.9854 27.1917 59.0132 27.2667 59.0122 27.3439V49.7473C59.0079 52.2113 58.3497 54.6311 57.1032 56.7647C55.8568 58.8983 54.0658 60.6709 51.9093 61.9054L41.3174 67.9531C41.0754 68.0883 40.8021 68.1593 40.5242 68.1593C40.2462 68.1593 39.973 68.0883 39.731 67.9531L29.1374 61.9054C26.9821 60.67 25.1923 58.8971 23.9467 56.7636C22.7012 54.6301 22.0436 52.2108 22.0395 49.7473V37.1974C22.0391 36.9519 21.9402 36.7166 21.7645 36.5432C21.5887 36.3698 21.3506 36.2723 21.1024 36.2723Z" fill="#184188"/>
<path id="Vector_3" d="M29.1709 41.2221C29.5447 41.2211 29.915 41.2933 30.2605 41.4345C30.6059 41.5758 30.9196 41.7833 31.1835 42.0452L36.0774 46.883C36.2531 47.0562 36.491 47.1535 36.7391 47.1535C36.9872 47.1535 37.2251 47.0562 37.4008 46.883L42.7608 41.5826C42.9374 41.408 43.0366 41.1711 43.0366 40.9242C43.0366 40.6772 42.9374 40.4404 42.7608 40.2657C42.5842 40.0911 42.3447 39.993 42.095 39.993C41.8452 39.993 41.6057 40.0911 41.4291 40.2657L36.7316 44.911L32.5002 40.7283C31.6128 39.8543 30.4106 39.3646 29.1582 39.3671C27.9058 39.3696 26.7056 39.8639 25.8217 40.7414C24.9379 41.619 24.4428 42.8077 24.4453 44.0462C24.4478 45.2848 24.9477 46.4716 25.8351 47.3456L33.4007 54.8288C33.8388 55.2625 34.3591 55.6065 34.9318 55.8413C35.5045 56.076 36.1183 56.1969 36.7383 56.1969C37.3582 56.1969 37.972 56.076 38.5447 55.8413C39.1174 55.6065 39.6377 55.2625 40.0758 54.8288L55.2104 39.8641C56.0956 38.989 56.593 37.802 56.5931 36.5642C56.5933 35.3265 56.0962 34.1394 55.2113 33.2641C54.3263 32.3887 53.126 31.8969 51.8743 31.8967C50.6226 31.8966 49.4222 32.3881 48.537 33.2632L44.527 37.227C44.3504 37.4017 44.2512 37.6385 44.2512 37.8855C44.2512 38.1324 44.3504 38.3693 44.527 38.5439C44.7036 38.7185 44.9431 38.8166 45.1928 38.8166C45.4425 38.8166 45.6821 38.7185 45.8586 38.5439L49.867 34.5801C50.401 34.0523 51.1251 33.7559 51.8801 33.756C52.6351 33.7562 53.3591 34.0529 53.8929 34.5809C54.4266 35.109 54.7264 35.825 54.7262 36.5716C54.7261 37.3182 54.426 38.0342 53.892 38.562L38.7574 53.5119C38.4932 53.7734 38.1795 53.9808 37.8342 54.1224C37.4889 54.2639 37.1187 54.3368 36.7449 54.3368C36.3711 54.3368 36.001 54.2639 35.6556 54.1224C35.3103 53.9808 34.9966 53.7734 34.7324 53.5119L27.1584 46.0287C26.7607 45.6348 26.4899 45.1332 26.3802 44.5873C26.2706 44.0413 26.327 43.4754 26.5423 42.9611C26.7576 42.4469 27.1222 42.0072 27.5901 41.6977C28.0579 41.3882 28.608 41.2227 29.1709 41.2221Z" fill="#184188"/>
</g>
</g>
</svg>
