<svg width="80" height="80" viewBox="0 0 80 80" fill="none" xmlns="http://www.w3.org/2000/svg">
<g id="Frame 3">
<g id="Group 2">
<path id="Vector" d="M72.6559 70.125L57.5645 49.5484C57.3786 49.2951 57.1268 49.0874 56.8315 48.9438C56.5362 48.8001 56.2064 48.725 55.8714 48.725C55.5365 48.725 55.2067 48.8001 54.9113 48.9438C54.616 49.0874 54.3642 49.2951 54.1784 49.5484L52.2017 52.2391L43.0918 39.8219V28.3484H49.7008C49.7008 28.3484 49.7008 33.3859 49.7008 33.4281C49.7459 34.1594 50.0994 34.8467 50.6879 35.347C51.2763 35.8473 52.0543 36.122 52.86 36.1141H65.9094C66.266 36.1141 66.6164 36.0291 66.9255 35.8673C67.2345 35.7055 67.4914 35.4728 67.6703 35.1924C67.8493 34.912 67.944 34.5938 67.9451 34.2696C67.9462 33.9454 67.8535 33.6267 67.6764 33.3453L64.6203 28.4859C64.6119 28.4718 64.6075 28.4559 64.6075 28.4398C64.6075 28.4237 64.6119 28.4079 64.6203 28.3937L67.6764 23.5328C67.8527 23.2522 67.945 22.9345 67.9441 22.6113C67.9433 22.2881 67.8494 21.9708 67.6717 21.6909C67.494 21.411 67.2388 21.1783 66.9314 21.016C66.624 20.8536 66.2752 20.7673 65.9198 20.7656H55.9127V17.7625C55.9099 17.0173 55.5831 16.3034 55.0035 15.7765C54.4238 15.2496 53.6385 14.9525 52.8188 14.95H43.0918V14.8578C43.0937 14.367 42.8811 13.8956 42.5007 13.5473C42.1204 13.1989 41.6035 13.0021 41.0636 13H38.9288C38.3892 13.0004 37.8718 13.1955 37.4903 13.5423C37.1087 13.8892 36.8942 14.3595 36.8937 14.85V18.1312C36.8882 18.2498 36.9091 18.3681 36.9552 18.4791C37.0014 18.5901 37.0717 18.6915 37.162 18.7771C37.2523 18.8627 37.3608 18.9309 37.4808 18.9774C37.6009 19.024 37.73 19.048 37.8605 19.048C37.9911 19.048 38.1202 19.024 38.2403 18.9774C38.3603 18.9309 38.4688 18.8627 38.5591 18.7771C38.6494 18.6915 38.7197 18.5901 38.7659 18.4791C38.812 18.3681 38.8329 18.2498 38.8274 18.1312V14.85C38.8274 14.8256 38.8381 14.8021 38.8571 14.7848C38.8761 14.7675 38.9019 14.7578 38.9288 14.7578H41.0636C41.0905 14.7578 41.1163 14.7675 41.1353 14.7848C41.1543 14.8021 41.165 14.8256 41.165 14.85V37.4109C40.8223 37.1932 40.4143 37.0764 39.9962 37.0764C39.5781 37.0764 39.1701 37.1932 38.8274 37.4109V21.6437C38.8169 21.4171 38.7104 21.2028 38.5302 21.0458C38.3501 20.8888 38.1101 20.8011 37.8605 20.8011C37.611 20.8011 37.371 20.8888 37.1908 21.0458C37.0107 21.2028 36.9042 21.4171 36.8937 21.6437V39.8219L27.7839 52.2391L25.8106 49.5484C25.6248 49.2951 25.373 49.0874 25.0776 48.9438C24.7823 48.8001 24.4525 48.725 24.1176 48.725C23.7826 48.725 23.4528 48.8001 23.1575 48.9438C22.8621 49.0874 22.6104 49.2951 22.4245 49.5484L7.33997 70.125C7.13548 70.4034 7.01797 70.727 6.99999 71.0613C6.982 71.3956 7.06422 71.7281 7.23786 72.0233C7.4115 72.3184 7.67005 72.5652 7.98592 72.7372C8.30178 72.9092 8.6631 73.0001 9.03131 73H20.9772C21.2266 72.9904 21.4623 72.8937 21.635 72.7299C21.8077 72.5661 21.9042 72.348 21.9042 72.1211C21.9042 71.8942 21.8077 71.6761 21.635 71.5123C21.4623 71.3485 21.2266 71.2517 20.9772 71.2422H16.1748L29.9805 52.4172L35.6235 49.8531L39.417 52.4391C39.5844 52.553 39.7879 52.6146 39.9971 52.6146C40.2062 52.6146 40.4098 52.553 40.5772 52.4391L44.3707 49.8531L50.0119 52.4187L63.8176 71.2422H24.8807C24.6314 71.2517 24.3957 71.3485 24.223 71.5123C24.0502 71.6761 23.9538 71.8942 23.9538 72.1211C23.9538 72.348 24.0502 72.5661 24.223 72.7299C24.3957 72.8937 24.6314 72.9904 24.8807 73H70.9611C71.3296 73.0006 71.6914 72.9102 72.0077 72.7384C72.3241 72.5666 72.5831 72.3199 72.7572 72.0246C72.9312 71.7294 73.0138 71.3967 72.9959 71.0621C72.9781 70.7275 72.8605 70.4036 72.6559 70.125ZM52.8102 28.3484C52.9673 28.343 53.1241 28.3664 53.271 28.4172C53.418 28.4681 53.5521 28.5455 53.6654 28.6446C53.7788 28.7437 53.8689 28.8626 53.9305 28.9942C53.992 29.1257 54.0238 29.2672 54.0238 29.4102C54.0238 29.5531 53.992 29.6946 53.9305 29.8261C53.8689 29.9577 53.7788 30.0766 53.6654 30.1757C53.5521 30.2749 53.418 30.3522 53.271 30.4031C53.1241 30.454 52.9673 30.4774 52.8102 30.4719C52.4092 30.4724 52.0121 30.544 51.6413 30.6828V28.3484H52.8102ZM65.9198 22.5312C65.9374 22.5314 65.9547 22.5356 65.97 22.5437C65.9853 22.5518 65.998 22.5633 66.0068 22.5772C66.0157 22.5911 66.0204 22.6069 66.0205 22.6229C66.0206 22.639 66.0161 22.6548 66.0074 22.6687L62.953 27.5219C62.7781 27.8014 62.6861 28.1175 62.6861 28.4391C62.6861 28.7607 62.7781 29.0767 62.953 29.3562L66.0074 34.2187C66.0173 34.2321 66.0226 34.2479 66.0226 34.2641C66.0226 34.2802 66.0173 34.296 66.0074 34.3094C65.9996 34.3242 65.9871 34.3366 65.9714 34.345C65.9558 34.3533 65.9378 34.3572 65.9198 34.3562H52.8703C52.5631 34.36 52.2656 34.2578 52.0379 34.0703C51.8102 33.8827 51.6691 33.6236 51.6431 33.3453C51.6351 33.2015 51.6595 33.0577 51.7145 32.9227C51.7696 32.7877 51.8543 32.6643 51.9634 32.56C52.0726 32.4557 52.2039 32.3726 52.3495 32.3158C52.495 32.259 52.6518 32.2297 52.8102 32.2297C53.6299 32.2272 54.4152 31.9301 54.9949 31.4032C55.5745 30.8763 55.9014 30.1623 55.9041 29.4172V22.5312H65.9198ZM52.8102 16.7C53.1199 16.7 53.4169 16.8117 53.636 17.0106C53.8552 17.2096 53.9785 17.4794 53.979 17.7609V26.7984C53.6081 26.6602 53.211 26.589 52.8102 26.5891H43.0918V16.7H52.8102ZM9.03131 71.2422C9.01293 71.2426 8.99479 71.2383 8.9789 71.2299C8.96301 71.2215 8.94999 71.2093 8.94128 71.1945C8.93256 71.1798 8.92849 71.1632 8.92951 71.1465C8.93054 71.1298 8.93662 71.1137 8.94709 71.1L24.0368 50.5234C24.0459 50.5102 24.0586 50.4993 24.0736 50.4917C24.0886 50.4842 24.1055 50.4802 24.1227 50.4802C24.1399 50.4802 24.1568 50.4842 24.1718 50.4917C24.1869 50.4993 24.1995 50.5102 24.2087 50.5234L26.6288 53.8234L13.8509 71.2422H9.03131ZM44.7007 48.0375C44.5397 47.965 44.3597 47.9343 44.1808 47.9489C44.0018 47.9636 43.8308 48.0229 43.6866 48.1203L39.9979 50.6375L36.3059 48.1203C36.162 48.0228 35.9912 47.9635 35.8125 47.9489C35.6338 47.9343 35.4542 47.9649 35.2935 48.0375L32.1445 49.4703L39.9137 38.875C39.9228 38.8618 39.9355 38.8508 39.9505 38.8433C39.9656 38.8357 39.9825 38.8317 39.9996 38.8317C40.0168 38.8317 40.0337 38.8357 40.0488 38.8433C40.0638 38.8508 40.0765 38.8618 40.0856 38.875L47.8565 49.4703L44.7007 48.0375ZM71.0505 71.1937C71.043 71.2093 71.0304 71.2223 71.0144 71.231C70.9983 71.2397 70.9797 71.2436 70.9611 71.2422H66.1484L53.3671 53.8234L55.7872 50.5234C55.7961 50.5106 55.8086 50.5001 55.8234 50.493C55.8382 50.4859 55.8547 50.4823 55.8714 50.4828C55.8882 50.482 55.9049 50.4854 55.9197 50.4925C55.9345 50.4997 55.947 50.5104 55.9556 50.5234L71.0453 71.1C71.056 71.1137 71.0617 71.1301 71.0617 71.1469C71.0617 71.1637 71.056 71.18 71.0453 71.1937H71.0505Z" fill="#FABB19"/>
</g>
</g>
</svg>
