<svg width="80" height="80" viewBox="0 0 80 80" fill="none" xmlns="http://www.w3.org/2000/svg">
<g id="Frame 2">
<g id="Group 1">
<path id="Vector" d="M28.1796 63.095C27.888 63.095 27.6083 63.2176 27.4021 63.4359C27.1959 63.6542 27.0801 63.9502 27.0801 64.2589V69.2361C27.0801 69.5448 27.1959 69.8409 27.4021 70.0592C27.6083 70.2774 27.888 70.4001 28.1796 70.4001C28.4712 70.4001 28.7509 70.2774 28.9571 70.0592C29.1633 69.8409 29.2791 69.5448 29.2791 69.2361V64.2589C29.2791 63.9502 29.1633 63.6542 28.9571 63.4359C28.7509 63.2176 28.4712 63.095 28.1796 63.095Z" fill="#184188"/>
<path id="Vector_2" d="M51.6835 63.095C51.3919 63.095 51.1122 63.2176 50.906 63.4359C50.6998 63.6542 50.584 63.9502 50.584 64.2589V69.2361C50.584 69.5448 50.6998 69.8409 50.906 70.0592C51.1122 70.2774 51.3919 70.4001 51.6835 70.4001C51.9751 70.4001 52.2548 70.2774 52.461 70.0592C52.6672 69.8409 52.7831 69.5448 52.7831 69.2361V64.2589C52.7831 63.9502 52.6672 63.6542 52.461 63.4359C52.2548 63.2176 51.9751 63.095 51.6835 63.095Z" fill="#184188"/>
<path id="Vector_3" d="M18.2871 40.4192C18.439 40.5 18.6067 40.542 18.7767 40.5418C19.0246 40.5421 19.2653 40.4538 19.4598 40.2911C19.6543 40.1284 19.7911 39.901 19.8481 39.6456C19.9052 39.3903 19.879 39.122 19.774 38.8844C19.6689 38.6467 19.4911 38.4537 19.2693 38.3364C16.7169 36.9862 11.9288 36.9707 11.7265 36.9707C11.4349 36.9707 11.1552 37.0933 10.949 37.3116C10.7428 37.5299 10.627 37.826 10.627 38.1347C10.627 38.4434 10.7428 38.7394 10.949 38.9577C11.1552 39.176 11.4349 39.2987 11.7265 39.2987C12.9638 39.2987 16.5527 39.502 18.2871 40.4192Z" fill="#184188"/>
<path id="Vector_4" d="M8.19915 60.6072C7.90753 60.6072 7.62786 60.7298 7.42166 60.9481C7.21545 61.1664 7.09961 61.4625 7.09961 61.7712V69.2361C7.09961 69.5448 7.21545 69.8409 7.42166 70.0592C7.62786 70.2775 7.90753 70.4001 8.19915 70.4001C8.49076 70.4001 8.77043 70.2775 8.97664 70.0592C9.18284 69.8409 9.29868 69.5448 9.29868 69.2361V61.7712C9.29868 61.4625 9.18284 61.1664 8.97664 60.9481C8.77043 60.7298 8.49076 60.6072 8.19915 60.6072Z" fill="#184188"/>
<path id="Vector_5" d="M74.9053 56.2601L70.4529 53.9042C70.4403 53.8976 70.4297 53.8875 70.4222 53.8749C70.4146 53.8623 70.4106 53.8477 70.4104 53.8328V51.463C71.3416 50.786 72.1291 49.9107 72.7223 48.893C73.3156 47.8753 73.7016 46.7377 73.8556 45.5531C74.9994 43.4668 75.3798 41.0086 74.9244 38.6452C74.469 36.2817 73.2096 34.1775 71.3853 32.7322C71.5182 32.2651 71.5859 31.7799 71.5862 31.292C71.5862 28.2486 68.9839 25.7732 65.7865 25.7732C62.589 25.7732 59.9853 28.2563 59.9853 31.292C59.985 31.7804 60.0526 32.2662 60.1862 32.7338C58.8264 33.8172 57.7712 35.2722 57.1339 36.9427C56.8612 34.1073 56.5782 30.7566 56.3056 26.8549C55.9464 21.7055 54.1959 17.3491 51.2448 14.27C48.3156 11.2157 44.4027 9.6001 39.9313 9.6001C35.4598 9.6001 31.5469 11.2157 28.6178 14.27C25.6666 17.3491 23.9161 21.7055 23.5569 26.8518C23.4617 28.2191 23.3649 29.515 23.2637 30.7488H12.9017C11.0522 30.7513 9.27905 31.5303 7.97136 32.9149C6.66367 34.2995 5.92818 36.1767 5.92624 38.1346V38.2029C5.92725 39.1562 6.13648 40.0964 6.53758 40.9499L7.10054 42.1403V44.0414C7.09949 45.4719 7.41763 46.8824 8.02906 48.1581C8.6405 49.4337 9.52792 50.5384 10.6191 51.3823V53.063C10.6183 53.1682 10.5855 53.2703 10.5255 53.3542C10.4656 53.4381 10.3817 53.4992 10.2863 53.5286L5.74152 54.9006C4.77896 55.1987 3.9334 55.8186 3.33118 56.6676C2.72896 57.5166 2.40243 58.5491 2.40039 59.6108V69.233C2.40039 69.5417 2.51623 69.8378 2.72244 70.0561C2.92864 70.2744 3.20831 70.397 3.49993 70.397C3.79154 70.397 4.07121 70.2744 4.27742 70.0561C4.48362 69.8378 4.59946 69.5417 4.59946 69.233V59.6108C4.60097 59.0532 4.77324 58.5111 5.09044 58.0659C5.40764 57.6207 5.85266 57.2964 6.35872 57.1416L10.9035 55.7681C11.0646 55.7186 11.2207 55.6526 11.3697 55.571L14.1552 58.5198V69.2284C14.1552 69.5371 14.271 69.8331 14.4772 70.0514C14.6834 70.2697 14.9631 70.3923 15.2547 70.3923C15.5463 70.3923 15.826 70.2697 16.0322 70.0514C16.2384 69.8331 16.3542 69.5371 16.3542 69.2284V58.5198L19.1603 55.5493C19.4908 55.7115 19.8342 55.8423 20.1865 55.9404L21.3007 56.2772C20.5454 56.8441 19.9292 57.5941 19.5036 58.4645C19.0779 59.335 18.8551 60.3006 18.8539 61.2807V69.2361C18.8539 69.5448 18.9697 69.8409 19.1759 70.0592C19.3821 70.2775 19.6618 70.4001 19.9534 70.4001C20.245 70.4001 20.5247 70.2775 20.7309 70.0592C20.9371 69.8409 21.0529 69.5448 21.0529 69.2361V61.2807C21.053 60.5418 21.256 59.8188 21.637 59.1997C22.018 58.5806 22.5608 58.0921 23.1992 57.7934L29.4857 54.854C30.4557 56.9079 31.9468 58.6353 33.792 59.8425C35.6372 61.0498 37.7635 61.6893 39.9327 61.6893C42.1019 61.6893 44.2282 61.0498 46.0734 59.8425C47.9186 58.6353 49.4098 56.9079 50.3798 54.854L56.6647 57.7919C57.3032 58.091 57.8459 58.5798 58.2269 59.1992C58.6079 59.8185 58.8108 60.5416 58.811 61.2807V69.2361C58.811 69.5448 58.9269 69.8409 59.1331 70.0592C59.3393 70.2775 59.619 70.4001 59.9106 70.4001C60.2022 70.4001 60.4819 70.2775 60.6881 70.0592C60.8943 69.8409 61.0101 69.5448 61.0101 69.2361V61.2807C61.0089 59.8205 60.5162 58.4086 59.6203 57.2984L61.3224 56.3982L62.5993 57.6833C63.4587 58.5489 64.5995 59.0317 65.7858 59.0317C66.972 59.0317 68.1129 58.5489 68.9722 57.6833L70.2491 56.3982L73.9216 58.3428C74.3258 58.5545 74.6658 58.882 74.9029 59.288C75.14 59.6941 75.2648 60.1624 75.263 60.6398V69.2361C75.263 69.5448 75.3789 69.8409 75.5851 70.0592C75.7913 70.2775 76.071 70.4001 76.3626 70.4001C76.6542 70.4001 76.9339 70.2775 77.1401 70.0592C77.3463 69.8409 77.4621 69.5448 77.4621 69.2361V60.6398C77.4652 59.7297 77.2273 58.837 76.7753 58.0629C76.3234 57.2887 75.6756 56.6642 74.9053 56.2601ZM62.1844 31.292C62.1844 29.5321 63.7971 28.1011 65.785 28.1011C67.773 28.1011 69.3871 29.5321 69.3871 31.292C69.3871 31.3649 69.3871 31.4379 69.3754 31.5108C68.2376 31.0072 67.0167 30.7479 65.7836 30.7479C64.5504 30.7479 63.3295 31.0072 62.1917 31.5108C62.1903 31.4379 62.1844 31.3649 62.1844 31.292ZM65.7865 33.0768C67.6768 33.078 69.4895 33.8733 70.8265 35.288C72.1634 36.7027 72.9154 38.6213 72.9174 40.6224C72.9169 41.4227 72.7946 42.2177 72.5552 42.9768C69.434 39.6183 63.9407 38.3022 63.6769 38.2417C63.5162 38.2038 63.3495 38.2046 63.1892 38.2441C63.0288 38.2835 62.8789 38.3607 62.7506 38.4697C62.6222 38.5788 62.5186 38.7171 62.4475 38.8742C62.3764 39.0314 62.3396 39.2035 62.3398 39.3778C62.3398 39.3778 62.29 40.1925 61.4866 41.043C61.2864 41.2627 61.1757 41.5567 61.1783 41.8619C61.181 42.1671 61.2967 42.459 61.5007 42.6747C61.7047 42.8904 61.9805 43.0127 62.2688 43.0152C62.5571 43.0177 62.8348 42.9002 63.0421 42.6881C63.5572 42.1544 63.9638 41.5148 64.2369 40.8087C66.087 41.3907 69.9266 42.8604 71.6507 45.4398C71.4092 46.9396 70.663 48.2962 69.55 49.2587C68.4369 50.2213 67.0324 50.7248 65.5959 50.6762C64.1594 50.6276 62.7881 50.0301 61.7355 48.9942C60.6828 47.9583 60.02 46.554 59.8695 45.0409C59.8522 44.8693 59.7991 44.7039 59.7141 44.5567C59.0483 43.4146 58.683 42.1048 58.6559 40.763C58.6289 39.4212 58.941 38.0962 59.5602 36.925C60.1793 35.7538 61.0828 34.7791 62.1772 34.1017C63.2717 33.4243 64.5173 33.0688 65.785 33.0721L65.7865 33.0768ZM30.1615 15.929C32.6714 13.3109 36.0492 11.9281 39.9313 11.9281C43.8134 11.9281 47.1911 13.3109 49.701 15.929C52.2681 18.6062 53.7927 22.4473 54.1123 27.0225C54.9788 39.4383 55.964 46.3601 56.3466 48.7594C56.3502 48.7723 56.3495 48.7861 56.3447 48.7985C56.3399 48.8109 56.3313 48.8212 56.3202 48.8277C55.2749 49.5447 53.0055 50.881 49.465 51.8835L47.6529 51.0377C47.4311 50.9338 47.2425 50.764 47.1101 50.5488C46.9776 50.3337 46.907 50.0824 46.9067 49.8256V45.8231C48.7088 44.5899 50.1906 42.8987 51.2169 40.9038C52.2433 38.9089 52.7816 36.6737 52.7826 34.4021V32.2185C52.7856 31.5239 52.6476 30.8368 52.378 30.2035C52.1084 29.5703 51.7134 29.0058 51.2198 28.5481C49.0105 26.5135 44.0098 22.961 35.3396 22.0469C35.1938 22.0271 35.0458 22.0385 34.9042 22.0804C34.7627 22.1222 34.6305 22.1937 34.5155 22.2905C34.4005 22.3874 34.305 22.5077 34.2346 22.6443C34.1643 22.7809 34.1205 22.931 34.1059 23.0858C34.0913 23.2406 34.1061 23.3969 34.1496 23.5456C34.193 23.6942 34.2642 23.8321 34.3588 23.9511C34.4535 24.0701 34.5697 24.1678 34.7006 24.2385C34.8316 24.3091 34.9746 24.3513 35.1211 24.3624C43.1844 25.216 47.7644 28.4519 49.7816 30.3049C50.0376 30.5442 50.242 30.8389 50.3811 31.169C50.5203 31.4991 50.5908 31.857 50.588 32.2185V34.4021C50.588 37.3929 49.4657 40.2611 47.468 42.3759C45.4703 44.4907 42.7608 45.6788 39.9356 45.6788C37.1105 45.6788 34.401 44.4907 32.4033 42.3759C30.4056 40.2611 29.2833 37.3929 29.2833 34.4021V33.4275C29.2866 33.2025 29.3463 32.9825 29.4563 32.79C29.5663 32.5975 29.7226 32.4393 29.9093 32.3318C31.2845 31.4937 33.098 29.9418 33.9278 27.305C33.9756 27.1594 33.9957 27.0052 33.9868 26.8513C33.9779 26.6974 33.9402 26.547 33.8759 26.4087C33.8116 26.2704 33.722 26.1469 33.6123 26.0456C33.5026 25.9442 33.3749 25.8669 33.2368 25.8182C33.0986 25.7695 32.9527 25.7503 32.8075 25.7618C32.6623 25.7732 32.5206 25.8151 32.3909 25.885C32.2611 25.9549 32.1457 26.0514 32.0514 26.1689C31.9571 26.2863 31.8858 26.4225 31.8416 26.5693C31.2302 28.5109 29.8566 29.6733 28.8127 30.3143C28.2924 30.6276 27.8588 31.08 27.5555 31.6264C27.2522 32.1727 27.0897 32.7938 27.0843 33.4275V34.4021C27.0852 36.6738 27.6234 38.909 28.6498 40.9039C29.6761 42.8988 31.158 44.59 32.9602 45.8231V49.8241C32.9599 50.0807 32.8894 50.3317 32.7572 50.5468C32.6251 50.7619 32.4369 50.9318 32.2154 51.0362L30.4019 51.8835C26.86 50.881 24.5905 49.5432 23.5467 48.8277C23.5357 48.8215 23.5271 48.8114 23.5223 48.7993C23.5175 48.7871 23.5168 48.7736 23.5203 48.761C23.9029 46.3601 24.8881 39.4383 25.7546 27.0225C26.0698 22.4427 27.5944 18.6015 30.1615 15.929ZM9.29962 44.0414V41.8687C9.29961 41.6882 9.25996 41.5102 9.1838 41.3488L8.50502 39.9116C8.25533 39.3814 8.12534 38.797 8.12531 38.2045V38.1346C8.12686 36.7941 8.63059 35.509 9.526 34.5611C10.4214 33.6132 11.6354 33.08 12.9017 33.0783H22.3782V37.9111C22.3782 38.6966 22.2056 39.4713 21.8739 40.1739L21.3198 41.3488C21.2436 41.5102 21.2039 41.6882 21.2039 41.8687V44.3518C21.2039 45.1956 21.0438 46.0308 20.7331 46.8078C20.4224 47.5849 19.9675 48.2879 19.3953 48.8753C18.823 49.4627 18.1452 49.9224 17.4019 50.2272C16.6587 50.532 15.8652 50.6757 15.0685 50.6497C11.8872 50.5504 9.29962 47.5846 9.29962 44.0414ZM15.0084 52.9792H15.2606C16.0822 52.9797 16.8992 52.8489 17.684 52.5912V53.0568C17.6833 53.2889 17.7059 53.5204 17.7514 53.7475L15.2591 56.3858L12.7463 53.7412C12.7986 53.5194 12.8252 53.2917 12.8255 53.063V52.5711C13.5308 52.8173 14.266 52.9548 15.0084 52.9792ZM19.883 53.063V51.4599C20.5099 51.0028 21.073 50.4548 21.5558 49.8318C21.7356 50.219 22.0112 50.5472 22.3533 50.7816C23.9184 51.824 25.5907 52.6737 27.3379 53.3145L24.2592 54.7531L20.7861 53.7024C19.8772 53.4293 19.8772 53.3222 19.8772 53.063H19.883ZM39.9313 59.3625C38.188 59.3641 36.4782 58.8562 34.9903 57.8947C33.5023 56.9332 32.294 55.5556 31.4985 53.9135L33.098 53.1655C33.709 52.8787 34.2282 52.4103 34.5926 51.8172C34.9569 51.224 35.1507 50.5316 35.1505 49.8241V47.0305C38.2164 48.3301 41.6373 48.3301 44.7032 47.0305V49.8241C44.703 50.5316 44.8968 51.224 45.2611 51.8172C45.6255 52.4103 46.1447 52.8787 46.7557 53.1655L48.3552 53.9135C47.5626 55.5561 46.3562 56.9345 44.8694 57.8962C43.3827 58.8579 41.6736 59.3654 39.9313 59.3625ZM52.5246 53.3098C54.2718 52.6691 55.9441 51.8193 57.5092 50.777C57.8801 50.5227 58.1726 50.1588 58.3503 49.7305C58.528 49.3021 58.5832 48.828 58.509 48.3668C58.5017 48.3156 58.4929 48.2581 58.4841 48.2023C59.098 49.5116 60.0174 50.6334 61.1552 51.4614V53.8313C61.1553 53.8464 61.1514 53.8613 61.1439 53.8742C61.1364 53.8871 61.1256 53.8975 61.1127 53.9042L57.6704 55.7262L57.5502 55.6641L52.5246 53.3098ZM64.1211 56.004L63.0948 54.9766C63.2714 54.6266 63.3636 54.2358 63.3631 53.839V52.5974C64.9429 53.1169 66.6344 53.1169 68.2143 52.5974V53.839C68.214 54.2356 68.3056 54.6262 68.4811 54.9766L67.4549 56.004C67.0044 56.4549 66.4079 56.7061 65.788 56.7061C65.168 56.7061 64.5716 56.4549 64.1211 56.004Z" fill="#184188"/>
<path id="Vector_6" d="M71.662 62.145C71.3704 62.145 71.0907 62.2677 70.8845 62.4859C70.6783 62.7042 70.5625 63.0003 70.5625 63.309V69.236C70.5625 69.5447 70.6783 69.8407 70.8845 70.059C71.0907 70.2773 71.3704 70.4 71.662 70.4C71.9536 70.4 72.2333 70.2773 72.4395 70.059C72.6457 69.8407 72.7616 69.5447 72.7616 69.236V63.309C72.7616 63.0003 72.6457 62.7042 72.4395 62.4859C72.2333 62.2677 71.9536 62.145 71.662 62.145Z" fill="#184188"/>
</g>
</g>
</svg>
