<svg width="90" height="90" viewBox="0 0 90 90" fill="none" xmlns="http://www.w3.org/2000/svg">
<g id="&#208;&#160;&#208;&#181;&#209;&#129;&#209;&#131;&#209;&#128;&#209;&#129; 1 1">
<g id="&#208;&#161;&#208;&#187;&#208;&#190;&#208;&#185; 2">
<g id="top">
<g id="IBS &#208;&#187;&#208;&#190;&#208;&#179;&#208;&#190;">
<path id="Vector" d="M63.495 47.8667H68.7488C69.2455 47.8836 69.7168 48.0875 70.0661 48.4367C70.4154 48.7858 70.6163 49.2537 70.6275 49.7444C70.6428 50.2546 70.4544 50.7503 70.1029 51.1245C69.7514 51.4987 69.265 51.7213 68.7488 51.7444H64.8787V49.8667H56.88V57.8667H71.505C72.5598 57.8579 73.6026 57.644 74.5738 57.2373C75.5449 56.8305 76.4254 56.2388 77.1651 55.4959C77.9047 54.753 78.4889 53.8736 78.8844 52.9077C79.2799 51.9418 79.4789 50.9085 79.47 49.8667C79.4611 48.8248 79.2446 47.795 78.8327 46.8358C78.4209 45.8766 77.8218 45.007 77.0696 44.2765C76.3175 43.546 75.427 42.969 74.449 42.5784C73.4711 42.1878 72.4248 41.9912 71.37 42H66.1275C65.6412 42 65.1747 41.8092 64.8308 41.4695C64.4869 41.1299 64.2938 40.6692 64.2938 40.1889C64.2938 39.7086 64.4869 39.2479 64.8308 38.9082C65.1747 38.5686 65.6412 38.3778 66.1275 38.3778H69.75V40.1222H77.7488V32.1222H64.4963C59.5013 32.1222 55.62 35.1222 55.62 40.1222C55.6125 41.1441 55.8112 42.1573 56.2048 43.1024C56.5983 44.0476 57.1786 44.9058 57.9118 45.6268C58.645 46.3479 59.5164 46.9174 60.4751 47.3019C61.4337 47.6865 62.4604 47.8785 63.495 47.8667V47.8667ZM47.6213 57.8667C50.9963 57.8667 54.2475 54.7444 54.2475 50.6222C54.2619 49.3088 53.8595 48.0238 53.0968 46.9477C52.3342 45.8717 51.2495 45.0584 49.995 44.6222V44.5C50.5012 44.3667 53.505 42.8667 53.505 38.6222C53.505 35.2889 50.8725 32.1222 46.3725 32.1222H28.2488V38.3778H30.375V51.7111H28.2488V57.8333H47.6213V57.8667ZM39.1275 38.3778H42.8738C43.3601 38.3778 43.8265 38.5686 44.1704 38.9082C44.5143 39.2479 44.7075 39.7086 44.7075 40.1889C44.7075 40.6692 44.5143 41.1299 44.1704 41.4695C43.8265 41.8092 43.3601 42 42.8738 42H39.1275V38.3778ZM39.1275 47.8667H42.9975C43.5075 47.879 43.9948 48.0779 44.3648 48.4248C44.7347 48.7718 44.9611 49.242 45 49.7444C45.0045 50.0064 44.9559 50.2667 44.8572 50.5099C44.7584 50.7531 44.6115 50.9743 44.4249 51.1607C44.2384 51.347 44.016 51.4946 43.7709 51.5949C43.5257 51.6951 43.2628 51.746 42.9975 51.7444H39.1275V47.8667ZM25.6275 51.7444H23.5012V38.4111H25.6275V32.1222H11.745V38.3778H13.8712V51.7111H11.745V57.8333H25.6275V51.7444ZM0 0V90H90V0H0ZM88.5037 88.5H1.62V1.62222H88.5037V88.5Z" fill="white"/>
</g>
</g>
</g>
</g>
</svg>
